<?xml version="1.0" encoding="UTF-8" standalone="no"?><!DOCTYPE svg PUBLIC "-//W3C//DTD SVG 1.1//EN" "http://www.w3.org/Graphics/SVG/1.1/DTD/svg11.dtd"><svg width="100%" height="100%" viewBox="0 0 500 100" version="1.1" xmlns="http://www.w3.org/2000/svg" xmlns:xlink="http://www.w3.org/1999/xlink" xml:space="preserve" xmlns:serif="http://www.serif.com/" style="fill-rule:evenodd;clip-rule:evenodd;stroke-linecap:round;stroke-linejoin:round;stroke-miterlimit:1.5;"><rect x="0" y="0" width="500" height="100" style="fill:#1e2b33;"/><g transform="matrix(0.5,0,0,0.5,131.651,-17.8892)"><text x="175.258px" y="129.158px" style="font-family:'HelveticaNeue-Bold', 'Helvetica Neue';font-weight:700;font-size:40px;fill:#fff;">HI, I&apos;M</text><text x="96.698px" y="170.318px" style="font-family:'HelveticaNeue-Bold', 'Helvetica Neue';font-weight:700;font-size:40px;fill:#fff;">FRANCOIS TM</text></g><g><path d="M476,44.09l-6.372,0.783l-2.509,5.91l3.864,5.127l6.372,-0.783l2.508,-5.91l-3.863,-5.127Z" style="fill:none;stroke:#4855ff;stroke-width:2px;"/><path d="M372.42,87.449l-3.807,2.878l0.589,4.737l4.396,1.858l3.808,-2.878l-0.589,-4.737l-4.397,-1.858Z" style="fill:none;stroke:#4855ff;stroke-width:1.5px;"/><path d="M472.964,90.052l-3.925,1.851l-0.36,4.324l3.565,2.474l3.925,-1.851l0.36,-4.324l-3.565,-2.474Z" style="fill:none;stroke:#4855ff;stroke-width:1.5px;"/><path d="M408.51,69.853l-2.904,1.369l-0.266,3.199l2.637,1.83l2.904,-1.369l0.266,-3.199l-2.637,-1.83Z" style="fill:none;stroke:#4855ff;stroke-width:1px;"/><path d="M476.318,69.105c0.494,-0.125 0.997,0.175 1.122,0.67l1.81,7.155c0.125,0.494 -0.175,0.997 -0.669,1.122l-7.156,1.81c-0.494,0.125 -0.997,-0.175 -1.122,-0.67l-1.809,-7.155c-0.125,-0.494 0.175,-0.997 0.669,-1.122l7.155,-1.81Z" style="fill:#1e2b33;stroke:#20a881;stroke-width:2px;"/><path d="M417.063,93.939c0.324,-0.394 0.907,-0.45 1.301,-0.126l5.697,4.692c0.394,0.324 0.45,0.906 0.126,1.3l-4.692,5.698c-0.324,0.393 -0.907,0.45 -1.3,0.125l-5.698,-4.691c-0.393,-0.324 -0.45,-0.907 -0.126,-1.301l4.692,-5.697Z" style="fill:#1e2b33;stroke:#20a881;stroke-width:2px;"/><path d="M346.31,89.35c-0.185,-0.475 0.051,-1.011 0.526,-1.196l6.877,-2.679c0.475,-0.185 1.011,0.05 1.196,0.525l2.68,6.877c0.185,0.475 -0.051,1.011 -0.526,1.196l-6.877,2.68c-0.475,0.185 -1.011,-0.05 -1.196,-0.526l-2.68,-6.877Z" style="fill:#1e2b33;stroke:#20a881;stroke-width:2px;"/><path d="M456.189,55.134c0.81,0.249 1.264,1.109 1.015,1.918l-3.607,11.718c-0.249,0.809 -1.108,1.264 -1.918,1.015l-11.717,-3.607c-0.81,-0.249 -1.265,-1.108 -1.015,-1.918l3.606,-11.717c0.25,-0.81 1.109,-1.265 1.919,-1.016l11.717,3.607Z" style="fill:#1e2b33;stroke:#20a881;stroke-width:3.5px;"/><g><path d="M488.211,28.691l-5.593,3.289" style="fill:none;stroke:#ffe400;stroke-width:2px;"/><path d="M483.771,27.541l3.286,5.588" style="fill:none;stroke:#ffe400;stroke-width:2px;"/></g><g><path d="M459.794,78.354l-9.923,5.835" style="fill:none;stroke:#ffe400;stroke-width:3px;"/><path d="M451.917,76.314l5.83,9.915" style="fill:none;stroke:#ffe400;stroke-width:3px;"/></g><g><path d="M499.604,78.532l-6.205,-1.897" style="fill:none;stroke:#ffe400;stroke-width:2px;"/><path d="M497.449,74.484l-1.896,6.199" style="fill:none;stroke:#ffe400;stroke-width:2px;"/></g><g><path d="M410.528,86.462l-4.523,4.652" style="fill:none;stroke:#ffe400;stroke-width:2px;"/><path d="M405.943,86.528l4.647,4.519" style="fill:none;stroke:#ffe400;stroke-width:2px;"/></g><circle cx="491.755" cy="60.656" r="4.747" style="fill:none;stroke:#ff484e;stroke-width:2px;"/><circle cx="333.933" cy="101.669" r="4.747" style="fill:none;stroke:#ff484e;stroke-width:2px;"/><circle cx="387.369" cy="80.883" r="4.747" style="fill:none;stroke:#ff484e;stroke-width:2px;"/><circle cx="386.273" cy="98.173" r="2.578" style="fill:none;stroke:#ff484e;stroke-width:1px;"/><circle cx="449.871" cy="102.898" r="9.295" style="fill:none;stroke:#ff484e;stroke-width:4px;"/><circle cx="495.595" cy="41.352" r="4.405" style="fill:#f562ff;"/><circle cx="489.357" cy="91.114" r="4.405" style="fill:#f562ff;"/><circle cx="429.041" cy="85.412" r="4.405" style="fill:#f562ff;"/><circle cx="399.107" cy="98.002" r="2.407" style="fill:#f562ff;"/><circle cx="422.31" cy="68.493" r="2.327" style="fill:#f562ff;"/></g><g><path d="M21.721,44.09l6.372,0.783l2.508,5.91l-3.864,5.127l-6.372,-0.783l-2.508,-5.91l3.864,-5.127Z" style="fill:none;stroke:#4855ff;stroke-width:2px;"/><path d="M125.3,87.449l3.807,2.878l-0.589,4.737l-4.396,1.858l-3.808,-2.878l0.589,-4.737l4.397,-1.858Z" style="fill:none;stroke:#4855ff;stroke-width:1.5px;"/><path d="M24.756,90.052l3.925,1.851l0.36,4.324l-3.565,2.474l-3.925,-1.851l-0.36,-4.324l3.565,-2.474Z" style="fill:none;stroke:#4855ff;stroke-width:1.5px;"/><path d="M89.211,69.853l2.903,1.369l0.266,3.199l-2.637,1.83l-2.903,-1.369l-0.267,-3.199l2.638,-1.83Z" style="fill:none;stroke:#4855ff;stroke-width:1px;"/><path d="M21.402,69.105c-0.494,-0.125 -0.997,0.175 -1.122,0.67l-1.81,7.155c-0.125,0.494 0.175,0.997 0.669,1.122l7.156,1.81c0.494,0.125 0.997,-0.175 1.122,-0.67l1.81,-7.155c0.125,-0.494 -0.175,-0.997 -0.67,-1.122l-7.155,-1.81Z" style="fill:#1e2b33;stroke:#20a881;stroke-width:2px;"/><path d="M80.657,93.939c-0.324,-0.394 -0.907,-0.45 -1.3,-0.126l-5.698,4.692c-0.393,0.324 -0.45,0.906 -0.126,1.3l4.692,5.698c0.324,0.393 0.907,0.45 1.3,0.125l5.698,-4.691c0.393,-0.324 0.45,-0.907 0.126,-1.301l-4.692,-5.697Z" style="fill:#1e2b33;stroke:#20a881;stroke-width:2px;"/><path d="M151.41,89.35c0.185,-0.475 -0.05,-1.011 -0.526,-1.196l-6.877,-2.679c-0.475,-0.185 -1.011,0.05 -1.196,0.525l-2.679,6.877c-0.185,0.475 0.05,1.011 0.525,1.196l6.877,2.68c0.475,0.185 1.011,-0.05 1.196,-0.526l2.68,-6.877Z" style="fill:#1e2b33;stroke:#20a881;stroke-width:2px;"/><path d="M41.531,55.134c-0.809,0.249 -1.264,1.109 -1.015,1.918l3.607,11.718c0.249,0.809 1.108,1.264 1.918,1.015l11.717,-3.607c0.81,-0.249 1.265,-1.108 1.016,-1.918l-3.607,-11.717c-0.249,-0.81 -1.109,-1.265 -1.918,-1.016l-11.718,3.607Z" style="fill:#1e2b33;stroke:#20a881;stroke-width:3.5px;"/><g><path d="M9.51,28.691l5.593,3.289" style="fill:none;stroke:#ffe400;stroke-width:2px;"/><path d="M13.949,27.541l-3.286,5.588" style="fill:none;stroke:#ffe400;stroke-width:2px;"/></g><g><path d="M37.926,78.354l9.924,5.835" style="fill:none;stroke:#ffe400;stroke-width:3px;"/><path d="M45.803,76.314l-5.83,9.915" style="fill:none;stroke:#ffe400;stroke-width:3px;"/></g><g><path d="M-1.883,78.532l6.205,-1.897" style="fill:none;stroke:#ffe400;stroke-width:2px;"/><path d="M0.271,74.484l1.896,6.199" style="fill:none;stroke:#ffe400;stroke-width:2px;"/></g><g><path d="M87.192,86.462l4.523,4.652" style="fill:none;stroke:#ffe400;stroke-width:2px;"/><path d="M91.777,86.528l-4.647,4.519" style="fill:none;stroke:#ffe400;stroke-width:2px;"/></g><circle cx="5.966" cy="60.656" r="4.747" style="fill:none;stroke:#ff484e;stroke-width:2px;"/><circle cx="163.787" cy="101.669" r="4.747" style="fill:none;stroke:#ff484e;stroke-width:2px;"/><circle cx="110.351" cy="80.883" r="4.747" style="fill:none;stroke:#ff484e;stroke-width:2px;"/><circle cx="111.447" cy="98.173" r="2.578" style="fill:none;stroke:#ff484e;stroke-width:1px;"/><circle cx="47.85" cy="102.898" r="9.295" style="fill:none;stroke:#ff484e;stroke-width:4px;"/><circle cx="2.125" cy="41.352" r="4.405" style="fill:#f562ff;"/><circle cx="8.364" cy="91.114" r="4.405" style="fill:#f562ff;"/><circle cx="68.679" cy="85.412" r="4.405" style="fill:#f562ff;"/><circle cx="98.614" cy="98.002" r="2.407" style="fill:#f562ff;"/><circle cx="75.41" cy="68.493" r="2.327" style="fill:#f562ff;"/></g></svg>