<?xml version="1.0" encoding="UTF-8" standalone="no"?>
<!DOCTYPE svg PUBLIC "-//W3C//DTD SVG 1.1//EN" "http://www.w3.org/Graphics/SVG/1.1/DTD/svg11.dtd">
<svg width="100%" height="100%" viewBox="0 0 1135 375" version="1.1" xmlns="http://www.w3.org/2000/svg" xmlns:xlink="http://www.w3.org/1999/xlink" xml:space="preserve" xmlns:serif="http://www.serif.com/" style="fill-rule:evenodd;clip-rule:evenodd;stroke-linejoin:round;stroke-miterlimit:2;">
    <g transform="matrix(1,0,0,1,62.7878,143.863)">
        <g transform="matrix(0.728765,0,0,0.728765,-82.5802,48.2047)">
            <circle cx="140.291" cy="137.65" r="113.132" style="fill:rgb(255,0,0);fill-opacity:0.3;"/>
        </g>
        <g transform="matrix(0.840825,0,0,0.552333,569.605,-32.227)">
            <circle cx="140.291" cy="137.65" r="113.132" style="fill:rgb(255,0,0);fill-opacity:0.3;"/>
        </g>
        <g transform="matrix(1.39054,0,0,0.856408,293.088,-86.0081)">
            <circle cx="140.291" cy="137.65" r="113.132" style="fill:rgb(255,0,0);fill-opacity:0.3;"/>
        </g>
        <g transform="matrix(1.21437,0,0,1.21437,-85.7674,-173.637)">
            <circle cx="140.291" cy="137.65" r="113.132" style="fill:rgb(255,0,0);fill-opacity:0.3;"/>
        </g>
        <g transform="matrix(1.21437,0,0,1.21437,764.227,-113.764)">
            <circle cx="140.291" cy="137.65" r="113.132" style="fill:rgb(255,0,0);fill-opacity:0.3;"/>
        </g>
        <g transform="matrix(0.465552,0,0,0.465552,755.354,102.266)">
            <circle cx="140.291" cy="137.65" r="113.132" style="fill:rgb(255,0,0);fill-opacity:0.3;"/>
        </g>
    </g>
</svg>
